<svg width="46" height="46" viewBox="0 0 46 46" fill="none" xmlns="http://www.w3.org/2000/svg">
<circle cx="23" cy="23" r="23" fill="#6C6767" fill-opacity="0.18"/>
<path d="M29.5713 12.8985C29.5713 12.7473 29.5084 12.6022 29.3963 12.4953C29.2843 12.3884 29.1324 12.3283 28.9739 12.3283H25.9869C24.4828 12.2568 23.0102 12.7564 21.8908 13.7181C20.7714 14.6797 20.0963 16.0252 20.0129 17.4605V20.5399H17.0259C16.8674 20.5399 16.7155 20.5999 16.6034 20.7069C16.4914 20.8138 16.4285 20.9589 16.4285 21.1101V24.0754C16.4285 24.2266 16.4914 24.3717 16.6034 24.4786C16.7155 24.5856 16.8674 24.6457 17.0259 24.6457H20.0129V32.287C20.0129 32.4382 20.0758 32.5833 20.1879 32.6902C20.2999 32.7972 20.4518 32.8572 20.6103 32.8572H24.1947C24.3531 32.8572 24.5051 32.7972 24.6171 32.6902C24.7292 32.5833 24.7921 32.4382 24.7921 32.287V24.6457H27.9225C28.0553 24.6475 28.185 24.607 28.2911 24.5306C28.3971 24.4541 28.4734 24.3461 28.5079 24.2237L29.3682 21.2584C29.392 21.1741 29.3952 21.0858 29.3775 21.0002C29.3599 20.9145 29.3219 20.8339 29.2665 20.7645C29.2111 20.6951 29.1398 20.6388 29.058 20.5998C28.9762 20.5609 28.8861 20.5404 28.7947 20.5399H24.7921V17.4605C24.8218 17.1782 24.9607 16.9166 25.1816 16.7268C25.4026 16.537 25.6897 16.4326 25.9869 16.4341H28.9739C29.1324 16.4341 29.2843 16.374 29.3963 16.267C29.5084 16.1601 29.5713 16.0151 29.5713 15.8638V12.8985Z" fill="white"/>
</svg>
