<svg width="46" height="46" viewBox="0 0 46 46" fill="none" xmlns="http://www.w3.org/2000/svg">
<circle cx="23" cy="23" r="23" fill="#6C6767" fill-opacity="0.18"/>
<path d="M18.86 13.1428H27.14C30.2943 13.1428 32.8571 15.7057 32.8571 18.86V27.14C32.8571 28.6562 32.2548 30.1104 31.1826 31.1826C30.1104 32.2548 28.6562 32.8571 27.14 32.8571H18.86C15.7057 32.8571 13.1428 30.2943 13.1428 27.14V18.86C13.1428 17.3437 13.7452 15.8895 14.8173 14.8173C15.8895 13.7452 17.3437 13.1428 18.86 13.1428ZM18.6628 15.1143C17.7217 15.1143 16.8191 15.4881 16.1536 16.1536C15.4881 16.8191 15.1143 17.7217 15.1143 18.6628V27.3371C15.1143 29.2987 16.7013 30.8857 18.6628 30.8857H27.3371C28.2782 30.8857 29.1808 30.5118 29.8463 29.8463C30.5118 29.1808 30.8857 28.2782 30.8857 27.3371V18.6628C30.8857 16.7013 29.2987 15.1143 27.3371 15.1143H18.6628ZM28.175 16.5928C28.5017 16.5928 28.8152 16.7226 29.0462 16.9537C29.2773 17.1848 29.4071 17.4982 29.4071 17.825C29.4071 18.1517 29.2773 18.4651 29.0462 18.6962C28.8152 18.9273 28.5017 19.0571 28.175 19.0571C27.8482 19.0571 27.5348 18.9273 27.3037 18.6962C27.0726 18.4651 26.9428 18.1517 26.9428 17.825C26.9428 17.4982 27.0726 17.1848 27.3037 16.9537C27.5348 16.7226 27.8482 16.5928 28.175 16.5928ZM23 18.0714C24.3071 18.0714 25.5607 18.5907 26.485 19.5149C27.4093 20.4392 27.9285 21.6928 27.9285 23C27.9285 24.3071 27.4093 25.5607 26.485 26.485C25.5607 27.4093 24.3071 27.9285 23 27.9285C21.6928 27.9285 20.4392 27.4093 19.5149 26.485C18.5907 25.5607 18.0714 24.3071 18.0714 23C18.0714 21.6928 18.5907 20.4392 19.5149 19.5149C20.4392 18.5907 21.6928 18.0714 23 18.0714ZM23 20.0428C22.2157 20.0428 21.4635 20.3544 20.9089 20.9089C20.3544 21.4635 20.0428 22.2157 20.0428 23C20.0428 23.7842 20.3544 24.5364 20.9089 25.091C21.4635 25.6456 22.2157 25.9571 23 25.9571C23.7842 25.9571 24.5364 25.6456 25.091 25.091C25.6456 24.5364 25.9571 23.7842 25.9571 23C25.9571 22.2157 25.6456 21.4635 25.091 20.9089C24.5364 20.3544 23.7842 20.0428 23 20.0428Z" fill="white"/>
</svg>
