<svg width="46" height="46" viewBox="0 0 46 46" fill="none" xmlns="http://www.w3.org/2000/svg">
<circle cx="23" cy="23" r="23" fill="#6C6767" fill-opacity="0.18"/>
<path d="M27.0853 13.9644C26.0062 13.9607 24.937 14.1698 23.9388 14.5798C22.9406 14.9897 22.0331 15.5924 21.2681 16.3535C20.5031 17.1146 19.8957 18.019 19.4806 19.015C19.0656 20.0111 18.851 21.0792 18.8491 22.1582V30.4366C18.8491 30.7726 18.9826 31.0949 19.2202 31.3325C19.4579 31.5702 19.7802 31.7037 20.1162 31.7037H23.0728C23.4088 31.7037 23.7311 31.5702 23.9688 31.3325C24.2064 31.0949 24.3399 30.7726 24.3399 30.4366V22.1582C24.3396 21.7745 24.4202 21.3949 24.5764 21.0444C24.7327 20.6938 24.961 20.3802 25.2466 20.1238C25.5322 19.8674 25.8687 19.6741 26.234 19.5565C26.5993 19.4388 26.9853 19.3995 27.3668 19.441C28.0511 19.5272 28.6799 19.8615 29.134 20.3805C29.5882 20.8995 29.836 21.5672 29.8306 22.2568V30.4366C29.8306 30.7726 29.9641 31.0949 30.2018 31.3325C30.4394 31.5702 30.7617 31.7037 31.0977 31.7037H34.0543C34.3903 31.7037 34.7126 31.5702 34.9503 31.3325C35.1879 31.0949 35.3214 30.7726 35.3214 30.4366V22.1582C35.3195 21.0792 35.1049 20.0111 34.6899 19.015C34.2748 18.019 33.6674 17.1146 32.9024 16.3535C32.1374 15.5924 31.2299 14.9897 30.2317 14.5798C29.2335 14.1698 28.1643 13.9607 27.0853 13.9644Z" fill="white"/>
<path d="M16.5684 15.2314H12.7671C12.0673 15.2314 11.5 15.7987 11.5 16.4985V30.4365C11.5 31.1363 12.0673 31.7036 12.7671 31.7036H16.5684C17.2682 31.7036 17.8355 31.1363 17.8355 30.4365V16.4985C17.8355 15.7987 17.2682 15.2314 16.5684 15.2314Z" fill="white"/>
</svg>
