<?xml version="1.0" standalone="no"?><svg xmlns="http://www.w3.org/2000/svg" viewBox="0 0 1440 320"><path fill="#006d5a" fill-opacity="1" d="M0,64L21.8,64C43.6,64,87,64,131,69.3C174.5,75,218,85,262,122.7C305.5,160,349,224,393,250.7C436.4,277,480,267,524,224C567.3,181,611,107,655,69.3C698.2,32,742,32,785,74.7C829.1,117,873,203,916,208C960,213,1004,139,1047,117.3C1090.9,96,1135,128,1178,160C1221.8,192,1265,224,1309,208C1352.7,192,1396,128,1418,96L1440,64L1440,320L1418.2,320C1396.4,320,1353,320,1309,320C1265.5,320,1222,320,1178,320C1134.5,320,1091,320,1047,320C1003.6,320,960,320,916,320C872.7,320,829,320,785,320C741.8,320,698,320,655,320C610.9,320,567,320,524,320C480,320,436,320,393,320C349.1,320,305,320,262,320C218.2,320,175,320,131,320C87.3,320,44,320,22,320L0,320Z"></path></svg>