<svg width="46" height="46" viewBox="0 0 46 46" fill="none" xmlns="http://www.w3.org/2000/svg">
<circle cx="23" cy="23" r="23" fill="#6C6767" fill-opacity="0.18"/>
<path fill-rule="evenodd" clip-rule="evenodd" d="M20.9512 26.5916V19.7008L27.3869 23.158L20.9512 26.5916ZM35.0832 18.5062C35.0832 18.5062 34.85 16.816 34.1363 16.072C33.2301 15.095 32.2147 15.091 31.7492 15.0337C28.4162 14.7854 23.4157 14.7854 23.4157 14.7854H23.4058C23.4058 14.7854 18.4052 14.7854 15.0722 15.0337C14.6057 15.0899 13.5913 15.095 12.6841 16.072C11.9705 16.816 11.7382 18.5062 11.7382 18.5062C11.7382 18.5062 11.5 20.4918 11.5 22.4753V24.3373C11.5 26.3218 11.7382 28.3064 11.7382 28.3064C11.7382 28.3064 11.9705 29.9957 12.6841 30.7406C13.5913 31.7176 14.7814 31.6869 15.3114 31.7891C17.2171 31.9772 23.4107 32.0354 23.4107 32.0354C23.4107 32.0354 28.4162 32.0282 31.7492 31.7799C32.2157 31.7227 33.2301 31.7176 34.1363 30.7406C34.851 29.9957 35.0832 28.3064 35.0832 28.3064C35.0832 28.3064 35.3214 26.3218 35.3214 24.3363V22.4764C35.3214 20.4918 35.0832 18.5062 35.0832 18.5062Z" fill="white"/>
</svg>
