<svg width="106" height="106" viewBox="0 0 106 106" fill="none" xmlns="http://www.w3.org/2000/svg">
<g filter="url(#filter0_d_116_3)">
<circle cx="55" cy="52" r="44" fill="white"/>
</g>
<g clip-path="url(#clip0_116_3)">
<path d="M72.35 34H59.15C58.2436 34 56.9742 34.5826 56.334 35.2919L39.9682 53.4244C39.6596 53.7679 39.4863 54.2329 39.4863 54.7175C39.4863 55.2022 39.6596 55.6671 39.9682 56.0106L54.134 71.7057C54.444 72.0476 54.8636 72.2395 55.3011 72.2395C55.7385 72.2395 56.1581 72.0476 56.4682 71.7057L72.834 53.5731C73.4764 52.8614 74 51.4574 74 50.4531V35.8281C73.9988 35.3437 73.8246 34.8794 73.5154 34.5369C73.2062 34.1943 72.7872 34.0013 72.35 34ZM64.1 48.625C63.6665 48.6248 63.2372 48.5301 62.8368 48.3461C62.4363 48.1622 62.0725 47.8926 61.7661 47.5529C61.4596 47.2132 61.2166 46.8099 61.0508 46.3661C60.8851 45.9223 60.7998 45.4466 60.8 44.9663C60.8001 44.486 60.8856 44.0104 61.0517 43.5668C61.2177 43.1231 61.461 42.72 61.7676 42.3804C62.0742 42.0409 62.4382 41.7717 62.8388 41.588C63.2394 41.4043 63.6687 41.3099 64.1022 41.3101C64.9777 41.3104 65.8172 41.696 66.4361 42.3822C67.0549 43.0683 67.4025 43.9987 67.4022 44.9688C67.4019 45.9388 67.0538 46.8689 66.4345 47.5546C65.8152 48.2403 64.9755 48.6253 64.1 48.625Z" fill="#006D5A"/>
<path d="M34.4 54.7188L53.1 34H50.35C49.4436 34 48.1742 34.5826 47.534 35.2919L31.1682 53.4244C30.8596 53.7679 30.6864 54.2329 30.6864 54.7175C30.6864 55.2022 30.8596 55.6671 31.1682 56.0106L45.334 71.7057C45.6441 72.0476 46.0637 72.2395 46.5011 72.2395C46.9386 72.2395 47.3582 72.0476 47.6682 71.7057L48.7022 70.5601L34.4 54.7188Z" fill="#006D5A"/>
</g>
<defs>
<filter id="filter0_d_116_3" x="0" y="0" width="106" height="106" filterUnits="userSpaceOnUse" color-interpolation-filters="sRGB">
<feFlood flood-opacity="0" result="BackgroundImageFix"/>
<feColorMatrix in="SourceAlpha" type="matrix" values="0 0 0 0 0 0 0 0 0 0 0 0 0 0 0 0 0 0 127 0" result="hardAlpha"/>
<feOffset dx="-2" dy="1"/>
<feGaussianBlur stdDeviation="4.5"/>
<feComposite in2="hardAlpha" operator="out"/>
<feColorMatrix type="matrix" values="0 0 0 0 0.1725 0 0 0 0 0.9 0 0 0 0 0.773188 0 0 0 0.47 0"/>
<feBlend mode="normal" in2="BackgroundImageFix" result="effect1_dropShadow_116_3"/>
<feBlend mode="normal" in="SourceGraphic" in2="effect1_dropShadow_116_3" result="shape"/>
</filter>
<clipPath id="clip0_116_3">
<rect width="44" height="39" fill="white" transform="translate(30 34)"/>
</clipPath>
</defs>
</svg>
