<svg width="106" height="106" viewBox="0 0 106 106" fill="none" xmlns="http://www.w3.org/2000/svg">
<g filter="url(#filter0_d_117_4)">
<circle cx="55" cy="52" r="44" fill="white"/>
</g>
<path d="M71.5104 32.6146H39.4895C37.0503 32.6146 35.0729 34.4427 35.0729 36.6979V66.3021C35.0729 68.5572 37.0503 70.3854 39.4895 70.3854H71.5104C73.9496 70.3854 75.927 68.5572 75.927 66.3021V36.6979C75.927 34.4427 73.9496 32.6146 71.5104 32.6146Z" stroke="#006D5A" stroke-width="3" stroke-linecap="round" stroke-linejoin="round"/>
<path d="M65.1615 46.9063C63.9169 46.9063 62.7233 46.4492 61.8433 45.6355C60.9632 44.8219 60.4688 43.7184 60.4688 42.5677C60.4688 41.4171 59.9744 40.3136 59.0943 39.4999C58.2143 38.6863 57.0207 38.2292 55.7761 38.2292H55.224C53.9794 38.2292 52.7858 38.6863 51.9058 39.4999C51.0257 40.3136 50.5313 41.4171 50.5313 42.5677C50.5313 43.7184 50.0369 44.8219 49.1568 45.6355C48.2768 46.4492 47.0832 46.9063 45.8386 46.9063C44.594 46.9063 43.4004 47.3634 42.5203 48.177C41.6403 48.9906 41.1459 50.0942 41.1459 51.2448V51.7552C41.1459 52.9059 41.6403 54.0094 42.5203 54.823C43.4004 55.6367 44.594 56.0938 45.8386 56.0938C47.0832 56.0938 48.2768 56.5509 49.1568 57.3645C50.0369 58.1781 50.5313 59.2817 50.5313 60.4323C50.5313 61.583 51.0257 62.6865 51.9058 63.5001C52.7858 64.3138 53.9794 64.7709 55.224 64.7709H55.7761C57.0207 64.7709 58.2143 64.3138 59.0943 63.5001C59.9744 62.6865 60.4688 61.583 60.4688 60.4323C60.4688 59.2817 60.9632 58.1781 61.8433 57.3645C62.7233 56.5509 63.9169 56.0938 65.1615 56.0938C66.4061 56.0938 67.5997 55.6367 68.4797 54.823C69.3598 54.0094 69.8542 52.9059 69.8542 51.7552V51.2448C69.8542 50.0942 69.3598 48.9906 68.4797 48.177C67.5997 47.3634 66.4061 46.9063 65.1615 46.9063Z" stroke="#006D5A" stroke-linecap="round" stroke-linejoin="round"/>
<path d="M65.8461 54.5676C64.9662 53.754 64.4719 52.6505 64.4719 51.5C64.4719 50.3494 64.9662 49.246 65.8461 48.4324C66.726 47.6188 67.2203 46.5153 67.2203 45.3648C67.2203 44.2142 66.726 43.1108 65.8461 42.2972L65.4552 41.9358C64.5752 41.1223 63.3817 40.6653 62.1372 40.6653C60.8927 40.6653 59.6992 41.1223 58.8192 41.9358C58.3834 42.3388 57.8661 42.6584 57.2966 42.8765C56.7272 43.0946 56.1169 43.2068 55.5006 43.2068C54.8843 43.2068 54.274 43.0946 53.7046 42.8765C53.1352 42.6584 52.6178 42.3388 52.182 41.9358C51.302 41.1223 50.1085 40.6653 48.864 40.6653C47.6195 40.6653 46.426 41.1223 45.546 41.9358L45.1551 42.2962C44.2752 43.1098 43.7809 44.2132 43.7809 45.3638C43.7809 46.5143 44.2752 47.6177 45.1551 48.4314C45.591 48.8342 45.9367 49.3126 46.1726 49.839C46.4085 50.3654 46.5299 50.9297 46.5299 51.4995C46.5299 52.0693 46.4085 52.6335 46.1726 53.16C45.9367 53.6864 45.591 54.1647 45.1551 54.5676C44.2752 55.3812 43.7809 56.4846 43.7809 57.6352C43.7809 58.7857 44.2752 59.8892 45.1551 60.7028L45.5449 61.0642C46.4249 61.8777 47.6184 62.3347 48.8629 62.3347C50.1074 62.3347 51.3009 61.8777 52.1809 61.0642C52.6167 60.6612 53.1341 60.3416 53.7035 60.1235C54.2729 59.9054 54.8832 59.7931 55.4995 59.7931C56.1158 59.7931 56.7261 59.9054 57.2955 60.1235C57.8649 60.3416 58.3823 60.6612 58.8181 61.0642C59.6981 61.8777 60.8916 62.3347 62.1361 62.3347C63.3806 62.3347 64.5741 61.8777 65.4541 61.0642L65.845 60.7038C66.7249 59.8902 67.2192 58.7868 67.2192 57.6362C67.2192 56.4857 66.7249 55.3822 65.845 54.5686" stroke="#006D5A" stroke-width="2" stroke-linecap="round" stroke-linejoin="round"/>
<defs>
<filter id="filter0_d_117_4" x="0" y="0" width="106" height="106" filterUnits="userSpaceOnUse" color-interpolation-filters="sRGB">
<feFlood flood-opacity="0" result="BackgroundImageFix"/>
<feColorMatrix in="SourceAlpha" type="matrix" values="0 0 0 0 0 0 0 0 0 0 0 0 0 0 0 0 0 0 127 0" result="hardAlpha"/>
<feOffset dx="-2" dy="1"/>
<feGaussianBlur stdDeviation="4.5"/>
<feComposite in2="hardAlpha" operator="out"/>
<feColorMatrix type="matrix" values="0 0 0 0 0.1725 0 0 0 0 0.9 0 0 0 0 0.773188 0 0 0 0.47 0"/>
<feBlend mode="normal" in2="BackgroundImageFix" result="effect1_dropShadow_117_4"/>
<feBlend mode="normal" in="SourceGraphic" in2="effect1_dropShadow_117_4" result="shape"/>
</filter>
</defs>
</svg>
