<svg width="21" height="23" viewBox="0 0 21 23" fill="none" xmlns="http://www.w3.org/2000/svg">
<g id="Group 56">
<path id="Vector" d="M17.6842 18.7895H3.31579L0 22.1053V3.31579C0 1.49211 1.49211 0 3.31579 0H17.6842C19.5079 0 21 1.49211 21 3.31579V15.4737C21 17.2974 19.5079 18.7895 17.6842 18.7895Z" fill="black"/>
<g id="Group">
<path id="Vector_2" d="M8.88477 7.6416H11.8668V15.8421H8.88477V7.6416Z" fill="white"/>
<path id="Vector_3" d="M10.3758 5.4051C11.1992 5.4051 11.8668 4.73755 11.8668 3.9141C11.8668 3.09064 11.1992 2.4231 10.3758 2.4231C9.55231 2.4231 8.88477 3.09064 8.88477 3.9141C8.88477 4.73755 9.55231 5.4051 10.3758 5.4051Z" fill="white"/>
</g>
</g>
</svg>
