<svg width="30" height="34" viewBox="0 0 30 34" fill="none" xmlns="http://www.w3.org/2000/svg">
<g id="blogger-alt 1">
<path id="Vector" d="M17.5 19.1251H12.5C12.3342 19.1251 12.1753 19.1997 12.0581 19.3325C11.9408 19.4654 11.875 19.6456 11.875 19.8334C11.875 20.0213 11.9408 20.2014 12.0581 20.3343C12.1753 20.4671 12.3342 20.5417 12.5 20.5417H17.5C17.6658 20.5417 17.8247 20.4671 17.9419 20.3343C18.0592 20.2014 18.125 20.0213 18.125 19.8334C18.125 19.6456 18.0592 19.4654 17.9419 19.3325C17.8247 19.1997 17.6658 19.1251 17.5 19.1251ZM12.5 14.8751H13.75C13.9158 14.8751 14.0747 14.8005 14.1919 14.6676C14.3092 14.5348 14.375 14.3546 14.375 14.1667C14.375 13.9789 14.3092 13.7987 14.1919 13.6659C14.0747 13.533 13.9158 13.4584 13.75 13.4584H12.5C12.3342 13.4584 12.1753 13.533 12.0581 13.6659C11.9408 13.7987 11.875 13.9789 11.875 14.1667C11.875 14.3546 11.9408 14.5348 12.0581 14.6676C12.1753 14.8005 12.3342 14.8751 12.5 14.8751ZM20 14.8751C19.8343 14.8747 19.6756 14.8 19.5584 14.6672C19.4413 14.5344 19.3753 14.3545 19.375 14.1667V12.7501C19.3737 11.4355 18.9123 10.1752 18.0921 9.24567C17.2719 8.31612 16.1599 7.79325 15 7.79175H12.5C11.0087 7.79362 9.57889 8.46588 8.52435 9.66101C7.46982 10.8562 6.87665 12.4766 6.875 14.1667V19.8334C6.87665 21.5236 7.46982 23.144 8.52435 24.3391C9.57889 25.5343 11.0087 26.2065 12.5 26.2084H17.5C18.9913 26.2065 20.4211 25.5343 21.4756 24.3391C22.5302 23.144 23.1233 21.5236 23.125 19.8334V18.4167C23.1243 17.4777 22.7949 16.5773 22.209 15.9132C21.6231 15.2492 20.8286 14.8758 20 14.8751ZM21.875 19.8334C21.8737 21.148 21.4123 22.4083 20.5921 23.3378C19.7719 24.2674 18.6599 24.7902 17.5 24.7917H12.5C11.3401 24.7902 10.2281 24.2674 9.40787 23.3378C8.58768 22.4083 8.12632 21.148 8.125 19.8334V14.1667C8.12632 12.8522 8.58768 11.5919 9.40787 10.6623C10.2281 9.73279 11.3401 9.20991 12.5 9.20841H15C15.8286 9.20916 16.6231 9.58254 17.209 10.2466C17.7949 10.9106 18.1243 11.811 18.125 12.7501V14.1667C18.125 15.3397 18.965 16.2917 20 16.2917C21.035 16.2917 21.875 17.2437 21.875 18.4167V19.8334ZM25 1.41675H5C4.00574 1.41787 3.05249 1.866 2.34945 2.66279C1.6464 3.45957 1.25099 4.53992 1.25 5.66675V28.3334C1.25099 29.4602 1.6464 30.5406 2.34945 31.3374C3.05249 32.1342 4.00574 32.5823 5 32.5834H25C25.9943 32.5823 26.9475 32.1342 27.6506 31.3374C28.3536 30.5406 28.749 29.4602 28.75 28.3334V5.66675C28.749 4.53992 28.3536 3.45957 27.6506 2.66279C26.9475 1.866 25.9943 1.41787 25 1.41675ZM27.5 28.3334C27.499 29.0845 27.2353 29.8045 26.7667 30.3356C26.298 30.8668 25.6627 31.1656 25 31.1667H5C4.33726 31.1656 3.70195 30.8668 3.23333 30.3356C2.7647 29.8045 2.50099 29.0845 2.5 28.3334V5.66675C2.50099 4.91565 2.7647 4.19563 3.23333 3.66452C3.70195 3.13341 4.33726 2.83454 5 2.83341H25C25.6627 2.83454 26.298 3.13341 26.7667 3.66452C27.2353 4.19563 27.499 4.91565 27.5 5.66675V28.3334Z" fill="black"/>
</g>
</svg>
