<svg width="21" height="22" viewBox="0 0 21 22" fill="none" xmlns="http://www.w3.org/2000/svg">
<path d="M4.6665 9.52734H6.99984V11.6445H4.6665V9.52734ZM4.6665 13.7617H6.99984V15.8789H4.6665V13.7617ZM9.33317 9.52734H11.6665V11.6445H9.33317V9.52734ZM9.33317 13.7617H11.6665V15.8789H9.33317V13.7617ZM13.9998 9.52734H16.3332V11.6445H13.9998V9.52734ZM13.9998 13.7617H16.3332V15.8789H13.9998V13.7617Z" fill="#091F1B"/>
<path d="M2.33333 21.1719H18.6667C19.9535 21.1719 21 20.2223 21 19.0547V4.23437C21 3.06674 19.9535 2.11719 18.6667 2.11719H16.3333V0H14V2.11719H7V0H4.66667V2.11719H2.33333C1.0465 2.11719 0 3.06674 0 4.23437V19.0547C0 20.2223 1.0465 21.1719 2.33333 21.1719ZM18.6667 6.35156L18.6678 19.0547H2.33333V6.35156H18.6667Z" fill="#091F1B"/>
</svg>
