<svg width="20" height="22" viewBox="0 0 20 22" fill="none" xmlns="http://www.w3.org/2000/svg">
<path id="Vector" d="M2 0V2H18V0H2ZM2 20V22H18V20H2ZM10 10C10.8333 10 11.5417 10.2917 12.125 10.875C12.7083 11.4583 13 12.1667 13 13C13 13.8333 12.7083 14.5417 12.125 15.125C11.5417 15.7083 10.8333 16 10 16C9.16667 16 8.45833 15.7083 7.875 15.125C7.29167 14.5417 7 13.8333 7 13C7 12.1667 7.29167 11.4583 7.875 10.875C8.45833 10.2917 9.16667 10 10 10ZM2 3C1.45 3 0.979001 3.196 0.587001 3.588C0.195002 3.98 -0.000664969 4.45067 1.69779e-06 5V17C1.69779e-06 17.55 0.196002 18.021 0.588002 18.413C0.980002 18.805 1.45067 19.0007 2 19H18C18.55 19 19.021 18.804 19.413 18.412C19.805 18.02 20.0007 17.5493 20 17V5C20 4.45 19.804 3.979 19.412 3.587C19.02 3.195 18.5493 2.99933 18 3H2ZM3.75 5C4.5 5.93333 5.40833 6.66667 6.475 7.2C7.54167 7.73333 8.71667 8 10 8C11.2833 8 12.4583 7.73333 13.525 7.2C14.5917 6.66667 15.5 5.93333 16.25 5H18V17H2V5H3.75ZM6.7 5H13.3C12.8167 5.33333 12.2957 5.58333 11.737 5.75C11.1783 5.91667 10.5993 6 10 6C9.4 6 8.82067 5.91667 8.262 5.75C7.70333 5.58333 7.18267 5.33333 6.7 5ZM10 12C9.71667 12 9.479 12.096 9.287 12.288C9.095 12.48 8.99933 12.7173 9 13C9 13.2833 9.096 13.521 9.288 13.713C9.48 13.905 9.71733 14.0007 10 14C10.2833 14 10.521 13.904 10.713 13.712C10.905 13.52 11.0007 13.2827 11 13C11 12.7167 10.904 12.479 10.712 12.287C10.52 12.095 10.2827 11.9993 10 12Z" fill="black"/>
</svg>
