<svg width="21" height="22" viewBox="0 0 21 22" fill="none" xmlns="http://www.w3.org/2000/svg">
<path d="M18.75 2.63255H16.5V0.493604C16.5 0.221011 16.2481 0 15.9375 0H14.0625C13.7519 0 13.5 0.221011 13.5 0.493604V2.63255H7.5V0.493604C7.5 0.221011 7.24814 0 6.9375 0H5.0625C4.75186 0 4.5 0.221011 4.5 0.493604V2.63255H2.25C1.00734 2.63255 0 3.51652 0 4.60697V19.086C0 20.1765 1.00734 21.0604 2.25 21.0604H18.75C19.9927 21.0604 21 20.1765 21 19.086V4.60697C21 3.51652 19.9927 2.63255 18.75 2.63255ZM18.4688 19.086H2.53125C2.45666 19.086 2.38512 19.06 2.33238 19.0137C2.27963 18.9674 2.25 18.9047 2.25 18.8392V6.58139H18.75V18.8392C18.75 18.9047 18.7204 18.9674 18.6676 19.0137C18.6149 19.06 18.5433 19.086 18.4688 19.086ZM15.9915 10.8325L9.32072 16.6393C9.10017 16.8313 8.74402 16.8301 8.5252 16.6365L5.00531 13.5228C4.78655 13.3292 4.78795 13.0167 5.0085 12.8247L6.07345 11.8977C6.294 11.7057 6.65016 11.707 6.86892 11.9005L8.9363 13.7294L14.1428 9.19724C14.3633 9.00527 14.7195 9.0065 14.9383 9.20004L15.9947 10.1345C16.2135 10.328 16.212 10.6406 15.9915 10.8325Z" fill="#091F1B"/>
</svg>
