<svg width="48" height="48" viewBox="0 0 48 48" fill="none" xmlns="http://www.w3.org/2000/svg">
<path d="M22.8461 4.30664H6.63248C5.40387 4.30664 4.22558 4.7947 3.35682 5.66346C2.48806 6.53222 2 7.71051 2 8.93912V41.3664C2 42.5951 2.48806 43.7733 3.35682 44.6421C4.22558 45.5109 5.40387 45.9989 6.63248 45.9989H39.0598C40.2884 45.9989 41.4667 45.5109 42.3355 44.6421C43.2042 43.7733 43.6923 42.5951 43.6923 41.3664V25.1528" stroke="#006D5A" stroke-width="4" stroke-linecap="round" stroke-linejoin="round"/>
<path d="M37.6121 3.43913C38.5336 2.51767 39.7834 2 41.0865 2C42.3896 2 43.6394 2.51767 44.5609 3.43913C45.4823 4.36058 46 5.61035 46 6.91348C46 8.21662 45.4823 9.46638 44.5609 10.3878L22.8461 32.1026L13.5812 34.4188L15.8974 25.1539L37.6121 3.43913Z" stroke="#006D5A" stroke-width="4" stroke-linecap="round" stroke-linejoin="round"/>
</svg>
