<svg width="36" height="35" viewBox="0 0 36 35" fill="none" xmlns="http://www.w3.org/2000/svg">
<g id="event-upcoming-rounded 1">
<path id="Vector" d="M28.5 32.0834H24C23.575 32.0834 23.219 31.9434 22.932 31.6634C22.645 31.3834 22.501 31.0373 22.5 30.6251C22.5 30.2119 22.644 29.8658 22.932 29.5867C23.22 29.3077 23.576 29.1677 24 29.1667H28.5V14.5834H7.5V18.9584C7.5 19.3716 7.356 19.7182 7.068 19.9982C6.78 20.2782 6.424 20.4177 6 20.4167C5.575 20.4167 5.219 20.2767 4.932 19.9967C4.645 19.7167 4.501 19.3706 4.5 18.9584V8.75008C4.5 7.948 4.794 7.26161 5.382 6.69091C5.97 6.12022 6.676 5.83439 7.5 5.83341H9V4.37508C9 3.96189 9.144 3.61578 9.432 3.33675C9.72 3.05772 10.076 2.91772 10.5 2.91675C10.925 2.91675 11.2815 3.05675 11.5695 3.33675C11.8575 3.61675 12.001 3.96286 12 4.37508V5.83341H24V4.37508C24 3.96189 24.144 3.61578 24.432 3.33675C24.72 3.05772 25.076 2.91772 25.5 2.91675C25.925 2.91675 26.2815 3.05675 26.5695 3.33675C26.8575 3.61675 27.001 3.96286 27 4.37508V5.83341H28.5C29.325 5.83341 30.0315 6.11925 30.6195 6.69091C31.2075 7.26258 31.501 7.94897 31.5 8.75008V29.1667C31.5 29.9688 31.2065 30.6557 30.6195 31.2274C30.0325 31.799 29.326 32.0844 28.5 32.0834ZM13.7625 29.1667H3C2.575 29.1667 2.219 29.0267 1.932 28.7467C1.645 28.4667 1.501 28.1206 1.5 27.7084C1.5 27.2952 1.644 26.9491 1.932 26.6701C2.22 26.3911 2.576 26.2511 3 26.2501H13.7625L10.95 23.4792C10.675 23.2119 10.5315 22.8779 10.5195 22.4774C10.5075 22.0768 10.651 21.7302 10.95 21.4376C11.225 21.1702 11.575 21.0365 12 21.0365C12.425 21.0365 12.775 21.1702 13.05 21.4376L18.45 26.6876C18.75 26.9792 18.9 27.3195 18.9 27.7084C18.9 28.0973 18.75 28.4376 18.45 28.7292L13.05 33.9792C12.775 34.2466 12.4315 34.3866 12.0195 34.3992C11.6075 34.4119 11.251 34.2719 10.95 33.9792C10.675 33.7119 10.5375 33.3716 10.5375 32.9584C10.5375 32.5452 10.675 32.2049 10.95 31.9376L13.7625 29.1667Z" fill="black"/>
</g>
</svg>
