<svg width="18" height="18" viewBox="0 0 18 18" fill="none" xmlns="http://www.w3.org/2000/svg">
<g clip-path="url(#clip0_397_1365)">
<path d="M0.879 14.339C0.316352 14.9015 0.000169912 15.6644 0 16.46L0 17.9998H1.53975C2.33533 17.9996 3.09827 17.6834 3.66075 17.1208L13.668 7.11353L10.8863 4.33179L0.879 14.339Z" fill="#858D9D"/>
<path d="M17.3585 0.641397C17.1759 0.458573 16.959 0.313538 16.7203 0.214584C16.4816 0.11563 16.2257 0.0646973 15.9673 0.0646973C15.7089 0.0646973 15.453 0.11563 15.2143 0.214584C14.9755 0.313538 14.7587 0.458573 14.576 0.641397L11.9465 3.27165L14.7283 6.0534L17.3585 3.4239C17.5414 3.24126 17.6864 3.02439 17.7853 2.78567C17.8843 2.54695 17.9352 2.29106 17.9352 2.03265C17.9352 1.77423 17.8843 1.51835 17.7853 1.27963C17.6864 1.04091 17.5414 0.82403 17.3585 0.641397Z" fill="#858D9D"/>
</g>
<defs>
<clipPath id="clip0_397_1365">
<rect width="18" height="18" fill="white"/>
</clipPath>
</defs>
</svg>
