<svg width="19" height="18" viewBox="0 0 19 18" fill="none" xmlns="http://www.w3.org/2000/svg">
<path d="M16.25 2.99999H13.925C13.5662 1.25518 12.0313 0.00225 10.25 0H8.74996C6.96863 0.00225 5.43378 1.25518 5.07498 2.99999H2.74999C2.33578 2.99999 2 3.33577 2 3.74998C2 4.16419 2.33578 4.5 2.74999 4.5H3.49998V14.25C3.50247 16.32 5.17995 17.9975 7.24999 18H11.75C13.82 17.9975 15.4975 16.32 15.5 14.25V4.5H16.25C16.6642 4.5 17 4.16422 17 3.75001C17 3.3358 16.6642 2.99999 16.25 2.99999ZM8.75 12.75C8.75 13.1642 8.41422 13.5 8.00001 13.5C7.58577 13.5 7.24999 13.1642 7.24999 12.75V8.25001C7.24999 7.8358 7.58576 7.50002 7.99998 7.50002C8.41419 7.50002 8.74996 7.8358 8.74996 8.25001V12.75H8.75ZM11.75 12.75C11.75 13.1642 11.4142 13.5 11 13.5C10.5858 13.5 10.25 13.1642 10.25 12.75V8.25001C10.25 7.8358 10.5858 7.50002 11 7.50002C11.4142 7.50002 11.75 7.8358 11.75 8.25001V12.75ZM6.62825 2.99999C6.94726 2.10171 7.79677 1.50114 8.75 1.49998H10.25C11.2032 1.50114 12.0528 2.10171 12.3718 2.99999H6.62825Z" fill="#858D9D"/>
</svg>
