<svg width="55" height="46" viewBox="0 0 55 46" fill="none" xmlns="http://www.w3.org/2000/svg">
<path fill-rule="evenodd" clip-rule="evenodd" d="M11.6669 16.6667C13.435 16.6667 15.1307 15.9643 16.3809 14.714C17.6312 13.4638 18.3335 11.7681 18.3335 10C18.3335 8.23189 17.6312 6.5362 16.3809 5.28595C15.1307 4.03571 13.435 3.33333 11.6669 3.33333C9.89876 3.33333 8.20307 4.03571 6.95282 5.28595C5.70258 6.5362 5.0002 8.23189 5.0002 10C5.0002 11.7681 5.70258 13.4638 6.95282 14.714C8.20307 15.9643 9.89876 16.6667 11.6669 16.6667ZM11.6669 20C12.9801 20 14.2804 19.7413 15.4937 19.2388C16.707 18.7362 17.8094 17.9997 18.7379 17.0711C19.6665 16.1425 20.4031 15.0401 20.9057 13.8268C21.4082 12.6136 21.6669 11.3132 21.6669 10C21.6669 8.68678 21.4082 7.38642 20.9057 6.17317C20.4031 4.95991 19.6665 3.85752 18.7379 2.92893C17.8094 2.00035 16.707 1.26375 15.4937 0.761205C14.2804 0.258658 12.9801 -1.95685e-08 11.6669 0C9.01471 3.95203e-08 6.47117 1.05357 4.5958 2.92893C2.72044 4.8043 1.66687 7.34783 1.66687 10C1.66687 12.6522 2.72044 15.1957 4.5958 17.0711C6.47117 18.9464 9.01471 20 11.6669 20Z" fill="#006D5A"/>
<path fill-rule="evenodd" clip-rule="evenodd" d="M7.84667 16.3234C8.00188 16.4782 8.12502 16.6621 8.20904 16.8646C8.29306 17.0671 8.33631 17.2842 8.33631 17.5034C8.33631 17.7226 8.29306 17.9397 8.20904 18.1422C8.12502 18.3446 8.00188 18.5286 7.84667 18.6834L6.72 19.8067C4.55178 21.9755 3.33362 24.9166 3.33333 27.9834V34.1701C3.33333 34.6121 3.15774 35.036 2.84518 35.3486C2.53262 35.6611 2.10869 35.8367 1.66667 35.8367C1.22464 35.8367 0.800716 35.6611 0.488155 35.3486C0.175595 35.036 0 34.6121 0 34.1701V27.9834C0.000472531 24.0327 1.56995 20.2438 4.36333 17.4501L5.48667 16.3234C5.64149 16.1682 5.8254 16.045 6.02789 15.961C6.23037 15.877 6.44744 15.8337 6.66667 15.8337C6.88589 15.8337 7.10296 15.877 7.30545 15.961C7.50793 16.045 7.69185 16.1682 7.84667 16.3234ZM47.1533 15.3234C46.9981 15.4782 46.875 15.6621 46.791 15.8646C46.7069 16.0671 46.6637 16.2842 46.6637 16.5034C46.6637 16.7226 46.7069 16.9397 46.791 17.1422C46.875 17.3446 46.9981 17.5286 47.1533 17.6834L48.28 18.8067C49.3537 19.8805 50.2055 21.1553 50.7866 22.5582C51.3676 23.9612 51.6667 25.4649 51.6667 26.9834V34.1701C51.6667 34.6121 51.8423 35.036 52.1548 35.3486C52.4674 35.6611 52.8913 35.8367 53.3333 35.8367C53.7754 35.8367 54.1993 35.6611 54.5118 35.3486C54.8244 35.036 55 34.6121 55 34.1701V26.9834C54.9995 23.0327 53.43 19.2438 50.6367 16.4501L49.5133 15.3234C49.3585 15.1682 49.1746 15.045 48.9721 14.961C48.7696 14.877 48.5526 14.8337 48.3333 14.8337C48.1141 14.8337 47.897 14.877 47.6946 14.961C47.4921 15.045 47.3082 15.1682 47.1533 15.3234Z" fill="#006D5A"/>
<path fill-rule="evenodd" clip-rule="evenodd" d="M41.6663 16.6667C39.8982 16.6667 38.2025 15.9643 36.9523 14.714C35.702 13.4638 34.9996 11.7681 34.9996 10C34.9996 8.23189 35.702 6.5362 36.9523 5.28595C38.2025 4.03571 39.8982 3.33333 41.6663 3.33333C43.4344 3.33333 45.1301 4.03571 46.3803 5.28595C47.6306 6.5362 48.333 8.23189 48.333 10C48.333 11.7681 47.6306 13.4638 46.3803 14.714C45.1301 15.9643 43.4344 16.6667 41.6663 16.6667ZM41.6663 20C40.3531 20 39.0527 19.7413 37.8395 19.2388C36.6262 18.7362 35.5238 17.9997 34.5952 17.0711C33.6666 16.1425 32.9301 15.0401 32.4275 13.8268C31.925 12.6136 31.6663 11.3132 31.6663 10C31.6663 8.68678 31.925 7.38642 32.4275 6.17317C32.9301 4.95991 33.6666 3.85752 34.5952 2.92893C35.5238 2.00035 36.6262 1.26375 37.8395 0.761205C39.0527 0.258658 40.3531 -1.95685e-08 41.6663 0C44.3185 3.95203e-08 46.862 1.05357 48.7374 2.92893C50.6127 4.8043 51.6663 7.34783 51.6663 10C51.6663 12.6522 50.6127 15.1957 48.7374 17.0711C46.862 18.9464 44.3185 20 41.6663 20ZM26.6663 30.8333C24.4562 30.8333 22.3365 31.7113 20.7737 33.2741C19.2109 34.8369 18.333 36.9565 18.333 39.1667V43.5C18.333 43.942 18.1574 44.3659 17.8448 44.6785C17.5323 44.9911 17.1083 45.1667 16.6663 45.1667C16.2243 45.1667 15.8004 44.9911 15.4878 44.6785C15.1752 44.3659 14.9996 43.942 14.9996 43.5V39.1667C14.9996 36.0725 16.2288 33.105 18.4167 30.9171C20.6046 28.7292 23.5721 27.5 26.6663 27.5C29.7605 27.5 32.728 28.7292 34.9159 30.9171C37.1038 33.105 38.333 36.0725 38.333 39.1667V43.5C38.333 43.942 38.1574 44.3659 37.8448 44.6785C37.5323 44.9911 37.1083 45.1667 36.6663 45.1667C36.2243 45.1667 35.8003 44.9911 35.4878 44.6785C35.1752 44.3659 34.9996 43.942 34.9996 43.5V39.1667C34.9996 38.0723 34.7841 36.9887 34.3653 35.9776C33.9465 34.9666 33.3327 34.0479 32.5589 33.2741C31.785 32.5003 30.8664 31.8865 29.8553 31.4677C28.8443 31.0489 27.7606 30.8333 26.6663 30.8333Z" fill="#006D5A"/>
<path fill-rule="evenodd" clip-rule="evenodd" d="M26.6667 25.8361C28.4349 25.8361 30.1305 25.1337 31.3808 23.8835C32.631 22.6332 33.3334 20.9375 33.3334 19.1694C33.3334 17.4013 32.631 15.7056 31.3808 14.4554C30.1305 13.2051 28.4349 12.5028 26.6667 12.5028C24.8986 12.5028 23.2029 13.2051 21.9527 14.4554C20.7025 15.7056 20.0001 17.4013 20.0001 19.1694C20.0001 20.9375 20.7025 22.6332 21.9527 23.8835C23.2029 25.1337 24.8986 25.8361 26.6667 25.8361ZM26.6667 29.1694C29.3189 29.1694 31.8625 28.1159 33.7378 26.2405C35.6132 24.3651 36.6667 21.8216 36.6667 19.1694C36.6667 16.5173 35.6132 13.9737 33.7378 12.0984C31.8625 10.223 29.3189 9.16943 26.6667 9.16943C24.0146 9.16943 21.471 10.223 19.5957 12.0984C17.7203 13.9737 16.6667 16.5173 16.6667 19.1694C16.6667 21.8216 17.7203 24.3651 19.5957 26.2405C21.471 28.1159 24.0146 29.1694 26.6667 29.1694Z" fill="#006D5A"/>
</svg>
