<svg width="19" height="19" viewBox="0 0 19 19" fill="none" xmlns="http://www.w3.org/2000/svg">
<path id="Vector" d="M2.375 16.8286H5.9375V10.3143H13.0625V16.8286H16.625V7.05714L9.5 2.17143L2.375 7.05714V16.8286ZM2.375 19C1.72188 19 1.16256 18.7872 0.697064 18.3616C0.231564 17.936 -0.00078965 17.425 2.01613e-06 16.8286V7.05714C2.01613e-06 6.71333 0.0843143 6.38762 0.252939 6.08C0.421564 5.77238 0.653919 5.51905 0.950002 5.32L8.075 0.434286C8.29271 0.289524 8.52031 0.180952 8.75781 0.108571C8.99531 0.0361904 9.24271 0 9.5 0C9.75729 0 10.0047 0.0361904 10.2422 0.108571C10.4797 0.180952 10.7073 0.289524 10.925 0.434286L18.05 5.32C18.3469 5.51905 18.5796 5.77238 18.7482 6.08C18.9169 6.38762 19.0008 6.71333 19 7.05714V16.8286C19 17.4257 18.7672 17.9371 18.3017 18.3627C17.8362 18.7883 17.2773 19.0007 16.625 19H10.6875V12.4857H8.3125V19H2.375Z" fill="black"/>
</svg>
