<svg width="66" height="66" viewBox="0 0 66 66" fill="none" xmlns="http://www.w3.org/2000/svg">
<g filter="url(#filter0_d_488_95)">
<circle cx="33" cy="33" r="20" fill="#87F9E5" fill-opacity="0.13" shape-rendering="crispEdges"/>
</g>
<path d="M34.6155 36.9968C34.5764 36.958 34.5235 36.9363 34.4684 36.9363C34.4133 36.9363 34.3604 36.958 34.3212 36.9968L31.2953 40.023C29.8943 41.4241 27.5298 41.5725 25.983 40.023C24.4335 38.4734 24.582 36.1113 25.983 34.7102L29.0089 31.684C29.0896 31.6033 29.0896 31.4705 29.0089 31.3897L27.9725 30.3532C27.9333 30.3145 27.8805 30.2927 27.8254 30.2927C27.7703 30.2927 27.7174 30.3145 27.6782 30.3532L24.6523 33.3794C22.4492 35.5826 22.4492 39.1479 24.6523 41.3486C26.8553 43.5492 30.4203 43.5518 32.6208 41.3486L35.6467 38.3224C35.7275 38.2416 35.7275 38.1088 35.6467 38.0281L34.6155 36.9968ZM41.3497 24.6524C39.1466 22.4492 35.5816 22.4492 33.3812 24.6524L30.3526 27.6786C30.3139 27.7178 30.2921 27.7707 30.2921 27.8258C30.2921 27.8809 30.3139 27.9337 30.3526 27.9729L31.3864 29.0068C31.4672 29.0875 31.6 29.0875 31.6807 29.0068L34.7067 25.9806C36.1076 24.5795 38.4722 24.4311 40.019 25.9806C41.5684 27.5302 41.42 29.8923 40.019 31.2934L36.993 34.3196C36.9543 34.3587 36.9325 34.4116 36.9325 34.4667C36.9325 34.5218 36.9543 34.5747 36.993 34.6138L38.0295 35.6504C38.1102 35.7311 38.243 35.7311 38.3237 35.6504L41.3497 32.6242C43.5501 30.4209 43.5501 26.8557 41.3497 24.6524ZM35.5556 29.3636C35.5164 29.3248 35.4636 29.3031 35.4085 29.3031C35.3533 29.3031 35.3005 29.3248 35.2613 29.3636L29.3631 35.2597C29.3243 35.2989 29.3026 35.3517 29.3026 35.4069C29.3026 35.462 29.3243 35.5148 29.3631 35.554L30.3943 36.5853C30.475 36.666 30.6078 36.666 30.6886 36.5853L36.5842 30.6892C36.6649 30.6084 36.6649 30.4756 36.5842 30.3949L35.5556 29.3636Z" fill="#006D5A"/>
<defs>
<filter id="filter0_d_488_95" x="0" y="0" width="66" height="66" filterUnits="userSpaceOnUse" color-interpolation-filters="sRGB">
<feFlood flood-opacity="0" result="BackgroundImageFix"/>
<feColorMatrix in="SourceAlpha" type="matrix" values="0 0 0 0 0 0 0 0 0 0 0 0 0 0 0 0 0 0 127 0" result="hardAlpha"/>
<feOffset/>
<feGaussianBlur stdDeviation="6.5"/>
<feComposite in2="hardAlpha" operator="out"/>
<feColorMatrix type="matrix" values="0 0 0 0 0 0 0 0 0 0 0 0 0 0 0 0 0 0 0.15 0"/>
<feBlend mode="normal" in2="BackgroundImageFix" result="effect1_dropShadow_488_95"/>
<feBlend mode="normal" in="SourceGraphic" in2="effect1_dropShadow_488_95" result="shape"/>
</filter>
</defs>
</svg>
