<svg width="66" height="66" viewBox="0 0 66 66" fill="none" xmlns="http://www.w3.org/2000/svg">
<g filter="url(#filter0_d_488_42)">
<circle cx="33" cy="33" r="20" fill="#87F9E5" fill-opacity="0.13" shape-rendering="crispEdges"/>
</g>
<path d="M39.1022 29.7545C39.1022 34.132 33.2822 38.5096 33.2822 38.5096C33.2822 38.5096 27.4622 34.132 27.4622 29.7545C27.4622 28.2065 28.0753 26.7219 29.1668 25.6273C30.2583 24.5327 31.7386 23.9177 33.2822 23.9177C34.8257 23.9177 36.3061 24.5327 37.3975 25.6273C38.489 26.7219 39.1022 28.2065 39.1022 29.7545Z" stroke="#006D5A" stroke-width="1.5" stroke-linecap="round" stroke-linejoin="round"/>
<path d="M33.2818 31.7C34.3532 31.7 35.2218 30.8289 35.2218 29.7544C35.2218 28.6799 34.3532 27.8088 33.2818 27.8088C32.2104 27.8088 31.3418 28.6799 31.3418 29.7544C31.3418 30.8289 32.2104 31.7 33.2818 31.7Z" stroke="#006D5A" stroke-width="1.5" stroke-linecap="round" stroke-linejoin="round"/>
<path d="M30.212 35.5913H26.492C26.2947 35.6021 26.1053 35.6731 25.9493 35.7948C25.7933 35.9165 25.678 36.0831 25.619 36.2723L23.679 42.109C23.582 42.2063 23.582 42.3036 23.582 42.4008C23.582 42.9845 23.97 43.3736 24.552 43.3736H42.012C42.594 43.3736 42.982 42.9845 42.982 42.4008C42.982 42.3036 42.982 42.2063 42.885 42.109L40.945 36.2723C40.886 36.0831 40.7708 35.9165 40.6148 35.7948C40.4588 35.6731 40.2694 35.6021 40.072 35.5913H36.3521" stroke="#006D5A" stroke-width="1.5" stroke-linecap="round" stroke-linejoin="round"/>
<defs>
<filter id="filter0_d_488_42" x="0" y="0" width="66" height="66" filterUnits="userSpaceOnUse" color-interpolation-filters="sRGB">
<feFlood flood-opacity="0" result="BackgroundImageFix"/>
<feColorMatrix in="SourceAlpha" type="matrix" values="0 0 0 0 0 0 0 0 0 0 0 0 0 0 0 0 0 0 127 0" result="hardAlpha"/>
<feOffset/>
<feGaussianBlur stdDeviation="6.5"/>
<feComposite in2="hardAlpha" operator="out"/>
<feColorMatrix type="matrix" values="0 0 0 0 0 0 0 0 0 0 0 0 0 0 0 0 0 0 0.15 0"/>
<feBlend mode="normal" in2="BackgroundImageFix" result="effect1_dropShadow_488_42"/>
<feBlend mode="normal" in="SourceGraphic" in2="effect1_dropShadow_488_42" result="shape"/>
</filter>
</defs>
</svg>
