<svg width="32" height="30" viewBox="0 0 32 30" fill="none" xmlns="http://www.w3.org/2000/svg">
<path d="M2 28.1621L4.01423 21.7935C2.27338 19.0799 1.64363 15.8664 2.24205 12.7505C2.84046 9.63462 4.62634 6.82831 7.26761 4.85339C9.90889 2.87846 13.2258 1.86932 16.6017 2.01358C19.9776 2.15784 23.1827 3.44569 25.6211 5.63769C28.0595 7.82968 29.5653 10.7766 29.8584 13.9307C30.1515 17.0847 29.2121 20.2311 27.2148 22.7849C25.2175 25.3387 22.2982 27.1262 18.9997 27.8149C15.7013 28.5036 12.2481 28.0467 9.2822 26.5291L2 28.1621Z" stroke="white" stroke-width="2.2" stroke-linecap="round" stroke-linejoin="round"/>
<path d="M8.12683 13.1641H24.4082" stroke="white" stroke-width="2" stroke-linecap="round"/>
<path d="M10.8499 17.3506H21.7041" stroke="white" stroke-width="2" stroke-linecap="round"/>
</svg>
