<svg width="28" height="31" viewBox="0 0 28 31" fill="none" xmlns="http://www.w3.org/2000/svg">
<path d="M27.4803 24.7921C26.5808 23.9742 25.7933 23.0364 25.139 22.0042C24.4247 20.5793 23.9965 19.0232 23.8797 17.4273V12.7267C23.8859 10.22 22.9945 7.7973 21.373 5.91374C19.7516 4.03018 17.5116 2.81545 15.0741 2.49777V1.27029C15.0741 0.933391 14.9429 0.610287 14.7093 0.372061C14.4758 0.133834 14.159 0 13.8288 0C13.4985 0 13.1818 0.133834 12.9482 0.372061C12.7147 0.610287 12.5835 0.933391 12.5835 1.27029V2.5168C10.1678 2.85738 7.9549 4.07946 6.35474 5.95669C4.75457 7.83392 3.87554 10.2391 3.88045 12.7267V17.4273C3.76362 19.0232 3.33549 20.5793 2.62117 22.0042C1.97836 23.034 1.2035 23.9717 0.317153 24.7921C0.217652 24.8813 0.137907 24.9911 0.0832221 25.1141C0.0285377 25.2372 0.000167714 25.3707 0 25.5058V26.7999C0 27.0522 0.098277 27.2943 0.273211 27.4727C0.448145 27.6512 0.685407 27.7514 0.932801 27.7514H26.8647C27.1121 27.7514 27.3493 27.6512 27.5243 27.4727C27.6992 27.2943 27.7975 27.0522 27.7975 26.7999V25.5058C27.7973 25.3707 27.7689 25.2372 27.7143 25.1141C27.6596 24.9911 27.5798 24.8813 27.4803 24.7921ZM1.94023 25.8483C2.80811 24.9931 3.57225 24.0347 4.21626 22.9938C5.11605 21.2729 5.64105 19.3741 5.75538 17.4273V12.7267C5.71839 11.6116 5.90176 10.5002 6.29458 9.45885C6.68741 8.41749 7.28164 7.46741 8.04191 6.66519C8.80218 5.86297 9.71292 5.22502 10.7199 4.78932C11.7269 4.35362 12.8096 4.12908 13.9034 4.12908C14.9972 4.12908 16.0799 4.35362 17.0869 4.78932C18.0939 5.22502 19.0046 5.86297 19.7649 6.66519C20.5252 7.46741 21.1194 8.41749 21.5122 9.45885C21.905 10.5002 22.0884 11.6116 22.0514 12.7267V17.4273C22.1658 19.3741 22.6908 21.2729 23.5905 22.9938C24.2346 24.0347 24.9987 24.9931 25.8666 25.8483H1.94023Z" fill="white"/>
<path d="M13.9456 30.9295C14.5333 30.9157 15.0971 30.6904 15.5376 30.2933C15.978 29.8963 16.2666 29.3532 16.3523 28.76H11.4457C11.5339 29.3693 11.836 29.9252 12.2958 30.3242C12.7557 30.7233 13.342 30.9384 13.9456 30.9295Z" fill="white"/>
</svg>
