<svg width="32" height="32" viewBox="0 0 32 32" fill="none" xmlns="http://www.w3.org/2000/svg">
<rect x="0.5" y="0.5" width="31" height="31" rx="5.5" stroke="#E0E2E7"/>
<path d="M16.7525 19.8442L13.4975 16.5834C13.3889 16.4741 13.3279 16.3262 13.3279 16.1721C13.3279 16.018 13.3889 15.8702 13.4975 15.7609L16.7525 12.5C16.8341 12.4178 16.9383 12.3617 17.0519 12.3389C17.1655 12.3161 17.2834 12.3276 17.3904 12.3721C17.4974 12.4165 17.5887 12.4918 17.6528 12.5883C17.7168 12.6849 17.7507 12.7983 17.75 12.9142V19.43C17.7507 19.5459 17.7168 19.6593 17.6528 19.7559C17.5887 19.8524 17.4974 19.9277 17.3904 19.9722C17.2834 20.0166 17.1655 20.0281 17.0519 20.0054C16.9383 19.9826 16.8341 19.9265 16.7525 19.8442Z" fill="#1D1F2C"/>
</svg>
