<svg width="32" height="32" viewBox="0 0 32 32" fill="none" xmlns="http://www.w3.org/2000/svg">
<rect x="0.5" y="0.5" width="31" height="31" rx="5.5" stroke="#E0E2E7"/>
<path d="M14.25 19.4294V12.9124C14.25 12.797 14.2842 12.6843 14.3483 12.5884C14.4124 12.4925 14.5035 12.4177 14.6101 12.3736C14.7167 12.3294 14.834 12.3179 14.9471 12.3404C15.0602 12.3629 15.1642 12.4184 15.2457 12.5L18.5042 15.7585C18.6136 15.8679 18.675 16.0162 18.675 16.1709C18.675 16.3256 18.6136 16.4739 18.5042 16.5833L15.2457 19.8418C15.1642 19.9234 15.0602 19.9789 14.9471 20.0014C14.834 20.0239 14.7167 20.0123 14.6101 19.9682C14.5035 19.9241 14.4124 19.8493 14.3483 19.7534C14.2842 19.6575 14.25 19.5447 14.25 19.4294Z" fill="#1D1F2C"/>
</svg>
