<svg width="31" height="32" viewBox="0 0 31 32" fill="none" xmlns="http://www.w3.org/2000/svg">
<g id="rate-review-outline-rounded 1">
<path id="Vector" d="M9.28967 18.1533H10.6692C10.8078 18.1533 10.937 18.1289 11.0567 18.08C11.1772 18.0302 11.2935 17.9471 11.4054 17.8307L17.8999 11.128C18.011 10.9964 18.0941 10.8587 18.1492 10.7147C18.2043 10.5698 18.2319 10.4262 18.2319 10.284C18.2319 10.1418 18.203 10.0013 18.1453 9.86267C18.0876 9.72311 18.0058 9.58756 17.8999 9.456L16.7116 8.18933C16.6014 8.07467 16.4731 7.98889 16.3267 7.932C16.1811 7.87511 16.0373 7.84667 15.8952 7.84667C15.7575 7.84667 15.6188 7.87511 15.4793 7.932C15.339 7.98889 15.2055 8.07467 15.0789 8.18933L8.55858 14.8933C8.44664 15.0098 8.36613 15.1298 8.31704 15.2533C8.26968 15.3778 8.246 15.5116 8.246 15.6547V17.0787C8.246 17.388 8.34503 17.6449 8.54308 17.8493C8.74114 18.0538 8.98957 18.156 9.28837 18.156M9.38783 16.976V15.7093L13.8415 11.112L14.4383 11.7627L15.0453 12.4027L10.6149 16.976H9.38783ZM14.4383 11.7627L15.0453 12.4027L13.8415 11.112L14.4383 11.7627ZM15.252 18.1547H22.1056C22.2899 18.1547 22.4436 18.0911 22.5667 17.964C22.6898 17.8369 22.7514 17.6782 22.7514 17.488C22.7514 17.2987 22.6898 17.1404 22.5667 17.0133C22.4436 16.8853 22.2899 16.8213 22.1056 16.8213H16.5463L15.252 18.1547ZM7.85075 22.6667L5.64975 24.9387C5.32339 25.2756 4.94622 25.3529 4.51825 25.1707C4.08942 24.9884 3.875 24.6573 3.875 24.1773V6.15333C3.875 5.54 4.07435 5.028 4.47304 4.61733C4.87088 4.20578 5.36687 4 5.96104 4H25.039C25.6331 4 26.1291 4.20578 26.527 4.61733C26.9257 5.028 27.125 5.54 27.125 6.15333V20.5133C27.125 21.1267 26.9261 21.6391 26.5282 22.0507C26.1296 22.4613 25.6331 22.6667 25.039 22.6667H7.85075ZM7.29921 21.3333H25.0402C25.2383 21.3333 25.4204 21.248 25.5866 21.0773C25.752 20.9058 25.8346 20.7178 25.8346 20.5133V6.15333C25.8346 5.94889 25.752 5.76089 25.5866 5.58933C25.4196 5.41867 25.237 5.33333 25.039 5.33333H5.96104C5.76299 5.33333 5.58086 5.41867 5.41467 5.58933C5.24933 5.76089 5.16667 5.94889 5.16667 6.15333V23.5267L7.29921 21.3333Z" fill="black"/>
</g>
</svg>
