<svg width="19" height="23" viewBox="0 0 19 23" fill="none" xmlns="http://www.w3.org/2000/svg">
<path d="M15.8347 4.27398L14.639 3.10223L8.437 9.17998V10.3627H9.64388L15.8347 4.27398ZM13.4098 1.89764L14.8513 0.484972C15.0062 0.331342 15.1907 0.209367 15.394 0.126117C15.5973 0.0428674 15.8155 0 16.0359 0C16.2562 0 16.4744 0.0428674 16.6778 0.126117C16.8811 0.209367 17.0655 0.331342 17.2204 0.484972L18.5055 1.74432C19.1648 2.39043 19.1648 3.43076 18.5055 4.06591L17.7456 4.81057L17.7233 4.83248L17.0751 5.46763L10.3702 12.0382H6.7049V8.46817L13.4098 1.89764ZM10.8619 1.29534L10.2473 1.89764L8.82811 3.2884C5.14042 3.34315 2.23497 6.13563 2.23497 10.078C2.23497 12.6405 4.41406 16.0352 8.93986 20.0871C13.4657 16.0352 15.6448 12.6514 15.6448 10.078V9.96844L17.6562 7.99728C17.8015 8.65434 17.8797 9.35519 17.8797 10.078C17.8797 13.7136 14.896 18.0173 8.93986 23C2.98368 18.0173 0 13.7136 0 10.078C0 4.62441 4.24643 1.09822 8.93986 1.09822C9.588 1.09822 10.2361 1.16393 10.8619 1.29534Z" fill="#091F1B"/>
</svg>
