<svg width="53" height="49" viewBox="0 0 53 49" fill="none" xmlns="http://www.w3.org/2000/svg">
<mask id="mask0_54_302" style="mask-type:luminance" maskUnits="userSpaceOnUse" x="-1" y="0" width="54" height="49">
<path d="M50.9243 48.4139L-0.000178484 47.7455L1.10871 0.16664L52.0332 0.835037L50.9243 48.4139Z" fill="white"/>
</mask>
<g mask="url(#mask0_54_302)">
<path fill-rule="evenodd" clip-rule="evenodd" d="M11.8181 31.0504C9.92984 30.5445 8.26874 29.4057 7.09954 27.8156C5.93035 26.2255 5.32037 24.2756 5.36684 22.2767L5.3858 21.4633C5.44109 19.0905 6.41695 16.827 8.09868 15.1708C9.78042 13.5145 12.0303 12.6011 14.3533 12.6316L15.1496 12.6421C17.4219 12.6698 19.5848 13.5994 21.1807 15.2341C22.7766 16.8688 23.6804 19.0805 23.7008 21.4011L23.7005 21.4109L23.7069 21.4109L23.6811 22.5171C23.6712 22.9433 23.6296 23.3625 23.5659 23.7717C23.4824 24.62 23.3673 25.4549 23.2208 26.2731C22.834 28.4162 22.187 30.5046 21.2949 32.4896C19.6933 36.0445 17.2535 39.1453 14.1964 41.5118L13.8785 41.755C13.7444 41.8562 13.582 41.9101 13.4161 41.9084C12.8237 41.9006 12.4568 41.2384 12.7432 40.7052C12.9937 40.2419 13.2382 39.7754 13.4768 39.3057C13.9863 38.2945 14.4671 37.2688 14.9185 36.2297C15.6459 34.5641 16.2782 32.8577 16.8122 31.1193L16.6392 31.1593C16.0054 31.2944 15.3596 31.358 14.7136 31.3488L13.9174 31.3383C13.1911 31.3288 12.4862 31.2284 11.8181 31.0504ZM9.96293 35.5984C7.18597 34.7122 4.77338 32.9306 3.08434 30.5189C1.39531 28.1072 0.520164 25.1943 0.589204 22.214L0.608158 21.4006C0.693618 17.7336 2.20175 14.2354 4.8008 11.6757C7.39984 9.11604 10.8769 7.7045 14.467 7.75163L15.2633 7.76208C17.457 7.78909 19.6055 8.3609 21.5234 9.42815C23.4413 10.4954 25.0709 12.0261 26.2718 13.888C27.5586 12.0587 29.2586 10.5718 31.2251 9.5555C33.1915 8.53923 35.3653 8.02416 37.559 8.05474L38.3552 8.06519C41.8984 8.11095 45.2676 9.57388 47.7395 12.1399C50.2113 14.7059 51.5888 18.1705 51.5762 21.7898L51.5507 22.8829C51.5368 23.4783 51.4848 24.0699 51.398 24.648C50.5401 33.1631 46.6962 40.7473 39.7881 45.971C38.8041 46.714 37.6114 47.1078 36.3943 47.0915C32.1231 47.0354 29.6672 42.3657 31.6582 38.6852C32.0277 38.0034 32.5248 37.0434 33.0548 35.9048C30.5627 35.1106 28.39 33.5981 26.767 31.6014C24.9097 37.2281 21.39 42.1442 16.6962 45.6679C15.7122 46.4109 14.5194 46.8047 13.3024 46.7884C9.0312 46.7323 6.57524 42.0626 8.56628 38.3821C8.93582 37.7003 9.43292 36.7403 9.96285 35.6017L9.96293 35.5984ZM34.9132 31.3536C35.598 31.536 36.3029 31.6327 37.0125 31.6415L37.8087 31.6519C38.5138 31.6616 39.2184 31.5845 39.9073 31.4224C39.2746 33.4857 38.5037 35.5035 37.6001 37.4615C37.0515 38.6636 36.4628 39.8465 35.8352 41.0083C35.7691 41.1313 35.7348 41.2692 35.7356 41.4088C35.7365 41.5485 35.7723 41.6852 35.8398 41.8059C35.9073 41.9266 36.0042 42.0272 36.1212 42.0982C36.2382 42.1693 36.3714 42.2082 36.5081 42.2115C36.6739 42.2132 36.8363 42.1593 36.9704 42.0581C38.0484 41.2402 39.0604 40.3349 39.9966 39.3511C41.9243 37.3114 43.4798 34.9373 44.5885 32.343C45.3768 30.4923 45.9544 28.5572 46.3096 26.5761C46.4617 25.7476 46.5779 24.913 46.6578 24.0749C46.7247 23.6596 46.7633 23.2403 46.7731 22.8202L46.7988 21.7173L46.7956 21.7173L46.7959 21.7043C46.7755 19.383 45.8713 17.1709 44.2747 15.5361C42.6781 13.9013 40.5143 12.9721 38.2415 12.9452L37.442 12.9347C35.119 12.9042 32.8692 13.8176 31.1874 15.4738C29.5057 17.1301 28.5298 19.3936 28.4745 21.7664L28.4556 22.5798C28.3578 26.7766 31.1103 30.3404 34.9068 31.3535L34.9132 31.3536Z" fill="#006D5A"/>
</g>
</svg>
