<svg width="43" height="33" viewBox="0 0 43 33" fill="none" xmlns="http://www.w3.org/2000/svg">
<path d="M0 21.5485C0 21.1087 0.175511 20.7042 0.526532 20.3348C0.912656 20.0005 1.33388 19.8246 1.75511 19.8246H5.84451C6.31839 19.8246 6.70451 20.0005 7.02043 20.3348C7.33635 20.669 7.49431 21.0912 7.49431 21.5485C7.49431 22.0586 7.33635 22.4808 7.02043 22.815C6.87085 22.9777 6.68893 23.1071 6.48639 23.195C6.28386 23.2828 6.06519 23.3272 5.84451 23.3252H1.75511C1.28123 23.3252 0.877553 23.1493 0.526532 22.7974C0.175511 22.428 0 22.0059 0 21.5485ZM5.84451 7.51119C5.84451 7.03625 6.00247 6.63166 6.30083 6.31503C6.70451 5.96322 7.10818 5.78731 7.54696 5.78731C8.00329 5.78731 8.40696 5.96322 8.74043 6.29744L11.6188 9.19989C11.9523 9.58689 12.1102 9.99147 12.1102 10.4136C12.1102 10.9062 11.9523 11.3284 11.6364 11.645C11.3204 11.9616 10.9343 12.1375 10.478 12.1375C10.0568 12.1375 9.63554 11.9616 9.24942 11.6274L6.30083 8.79531C6.00247 8.42591 5.84451 7.98614 5.84451 7.51119ZM9.35472 31.2585C9.35472 30.766 9.53023 30.3614 9.8637 30.0624C10.1796 29.7633 10.5657 29.605 11.0572 29.605H15.6731L21.1315 24.4686C21.307 24.3278 21.5001 24.3278 21.7282 24.4686L27.2744 29.605H32.136C32.6099 29.605 33.0136 29.7633 33.347 30.0975C33.5093 30.2475 33.6385 30.4298 33.7261 30.6328C33.8138 30.8358 33.858 31.0549 33.856 31.2761C33.856 31.7511 33.6805 32.1556 33.347 32.4899C33.0136 32.8241 32.6099 33 32.136 33H26.2037C26.0282 33 25.8527 32.9648 25.6948 32.8769L21.465 28.8838L17.2703 32.8769C17.1298 32.9648 16.9719 33 16.7788 33H11.0572C10.8309 32.9991 10.607 32.9532 10.3986 32.8649C10.1902 32.7766 10.0013 32.6478 9.84291 32.4858C9.68455 32.3238 9.55985 32.1319 9.47604 31.9212C9.39224 31.7105 9.351 31.4853 9.35472 31.2585ZM10.9694 21.5485C10.9694 23.2548 11.338 24.8028 12.0576 26.1924C12.0927 26.4035 12.2506 26.5091 12.4964 26.5091H15.796C15.9188 26.5091 16.0066 26.4563 16.0592 26.3683C16.1119 26.2628 16.0943 26.1572 16.0241 26.0341C14.9009 24.6796 14.3392 23.1844 14.3392 21.5485C14.3392 19.5784 15.0413 17.8897 16.4454 16.5C17.8494 15.1103 19.5343 14.4243 21.5176 14.4243C23.4833 14.4243 25.1507 15.1103 26.5372 16.5C27.9238 17.8897 28.6258 19.5608 28.6258 21.5485C28.6258 23.202 28.0642 24.6972 26.9584 26.0341C26.8882 26.1572 26.8707 26.2628 26.9058 26.3683C26.9409 26.4739 27.0286 26.5091 27.1691 26.5091H30.5038C30.7319 26.5091 30.8723 26.4035 30.9074 26.1924C31.6797 24.838 32.0307 23.29 32.0307 21.5485C32.0307 20.1237 31.7499 18.7516 31.1883 17.4675C30.6266 16.1658 29.8719 15.0576 28.9417 14.1077C27.9768 13.151 26.8392 12.3869 25.5895 11.8561C24.2907 11.2932 22.9392 11.0293 21.5176 11.0293C20.096 11.0293 18.727 11.3108 17.4282 11.8561C16.1294 12.419 15.0062 13.1578 14.0584 14.1077C13.0792 15.0824 12.3022 16.2417 11.772 17.5187C11.2419 18.7958 10.9691 20.1653 10.9694 21.5485ZM19.7976 5.78731V1.74147C19.7976 1.23134 19.9556 0.826759 20.289 0.492538C20.6225 0.158316 21.0437 0 21.5352 0C22.0266 0 22.4303 0.158316 22.7637 0.492538C23.0972 0.826759 23.2552 1.26652 23.2552 1.75906V5.8049C23.2552 6.31503 23.0972 6.71962 22.7637 7.05384C22.4478 7.37047 22.0266 7.54638 21.5352 7.54638C21.3048 7.55509 21.0751 7.51582 20.8606 7.43104C20.6461 7.34627 20.4515 7.21783 20.289 7.05384C20.1251 6.8876 19.9969 6.68945 19.9124 6.47161C19.8279 6.25377 19.7888 6.02088 19.7976 5.78731ZM30.9425 10.4312C30.9425 9.99147 31.1005 9.58689 31.4164 9.21749L34.2597 6.31503C34.5932 5.98081 35.0144 5.8049 35.4883 5.8049C35.9621 5.8049 36.3834 5.98081 36.6993 6.31503C37.0328 6.64925 37.1907 7.05384 37.1907 7.52878C37.1907 8.03891 37.0328 8.46109 36.7344 8.8129L33.7858 11.645C33.4172 11.9792 32.996 12.1551 32.5572 12.1551C32.0834 12.1551 31.6972 11.9968 31.3989 11.6626C31.1005 11.3284 30.9425 10.9238 30.9425 10.4312ZM35.5234 21.5485C35.5234 21.0736 35.6813 20.669 35.9972 20.3348C36.3132 20.0005 36.6993 19.8246 37.1556 19.8246H41.2801C41.754 19.8246 42.1577 20.0005 42.4911 20.3348C42.817 20.6613 43 21.1043 43 21.5661C43 22.0279 42.817 22.4709 42.4911 22.7974C42.1577 23.1493 41.754 23.3252 41.2801 23.3252H37.1556C36.6817 23.3252 36.2956 23.1493 35.9797 22.815C35.6813 22.4632 35.5234 22.041 35.5234 21.5485Z" fill="#006D5A"/>
</svg>
