<svg width="30" height="32" viewBox="0 0 30 32" fill="none" xmlns="http://www.w3.org/2000/svg">
<g id="detour 1">
<path id="Vector" d="M28.532 1.56592L20.3608 3.30904L21.7542 4.79554L22.8835 5.99998L19.5558 9.54967C17.9507 8.13092 16.1586 7.49692 14.4599 7.54592C12.4772 7.60329 10.656 8.54279 9.31194 9.97642C7.9678 11.4102 7.08046 13.3585 7.003 15.4875C6.93632 17.3192 7.50046 19.263 8.80429 21.0179L1.12915 29.2044L2.62095 30.7956L11.7311 21.0779L11.0001 20.2825C9.55165 18.7062 9.05565 17.0872 9.11067 15.5748C9.16575 14.0624 9.80794 12.6292 10.8034 11.5673C11.7988 10.5055 13.1273 9.83542 14.5171 9.79529C15.907 9.75511 17.3906 10.3048 18.8316 11.889L19.5773 12.7087L24.375 7.59104L26.8978 10.2819L28.532 1.56592ZM15 12C14.0055 12 13.0517 12.4214 12.3484 13.1716C11.6451 13.9217 11.25 14.9391 11.25 16C11.25 17.0608 11.6451 18.0783 12.3484 18.8284C13.0517 19.5786 14.0055 20 15 20C15.9946 20 16.9484 19.5786 17.6517 18.8284C18.355 18.0783 18.75 17.0608 18.75 16C18.75 14.9391 18.355 13.9217 17.6517 13.1716C16.9484 12.4214 15.9946 12 15 12Z" fill="black"/>
</g>
</svg>
