<svg width="30" height="28" viewBox="0 0 30 28" fill="none" xmlns="http://www.w3.org/2000/svg">
<g id="tourbox 1">
<path id="Vector" d="M6.75125 11.2746C6.75125 10.9479 7.12625 10.6842 7.87375 10.4952C8.57493 10.331 9.29587 10.2518 10.0188 10.2596C10.7413 10.2508 11.4619 10.3301 12.1625 10.4952C12.9187 10.6866 13.2925 10.9467 13.2925 11.2746V13.1786C13.2925 13.5087 12.9187 13.7689 12.1625 13.9602C11.5375 14.1212 10.8225 14.1982 10.0188 14.1982C9.29568 14.208 8.57442 14.1284 7.87375 13.9614C7.12375 13.7689 6.75125 13.5087 6.75125 13.1797V11.2746ZM10.0188 15.2611C12.9788 15.2611 14.4562 14.5669 14.4562 13.1786V11.2746C14.4562 9.88624 12.9788 9.19324 10.0188 9.19324C7.065 9.19324 5.5875 9.88974 5.5875 11.2746V13.1786C5.5875 14.5669 7.065 15.2634 10.0188 15.2634M23.1962 13.2217V9.22357H22.0325V13.2264C22.0325 13.5064 21.8738 13.7281 21.5575 13.8762C21.0263 14.1306 20.2775 14.2577 19.3075 14.2577C18.7017 14.266 18.0984 14.1845 17.52 14.0162C16.8988 13.8226 16.5863 13.5612 16.5863 13.2264V9.22474H15.4225V13.2182C15.4225 13.9859 15.8837 14.5482 16.8075 14.9087C17.4875 15.1677 18.32 15.3042 19.3062 15.3042C20.1602 15.3267 21.0107 15.1952 21.8112 14.9169C22.735 14.5634 23.1962 13.9952 23.1962 13.2182M26.0238 9.41024H26.0337C26.0386 9.41 26.0433 9.40884 26.0476 9.40683C26.0519 9.40483 26.0557 9.40201 26.0588 9.39857L26.0238 9.41024ZM25.2275 11.2676C25.2275 10.9934 25.385 10.7834 25.7075 10.6236C26.2738 10.3459 27.09 10.2106 28.1562 10.2106C28.6187 10.2106 29.1138 10.2572 29.6513 10.3587L30 9.3449C29.393 9.23286 28.7749 9.18201 28.1562 9.19324C27.3562 9.19324 26.6475 9.26674 26.0363 9.40907C24.7087 9.7544 24.0438 10.3716 24.0438 11.2687V15.2634H25.2275V11.2676ZM7.29875 16.5549C6.68645 16.5521 6.07528 16.6045 5.47375 16.7112L5.70125 17.7146C6.22657 17.619 6.75987 17.5667 7.295 17.5582C7.95 17.5582 8.56625 17.6399 9.16125 17.8067C9.87625 18.0016 10.2362 18.2641 10.2362 18.5826V20.4842C10.2362 20.8086 9.89875 21.0652 9.22375 21.2519C8.59648 21.4103 7.94849 21.4857 7.29875 21.4759C6.6488 21.4851 6.00072 21.4085 5.37375 21.2484C4.6925 21.0617 4.36125 20.8051 4.36125 20.4807V15.2331C4.62375 15.2447 4.88625 15.2622 5.17375 15.2622V14.0221C4.45505 13.9732 3.74109 13.8757 3.0375 13.7304C1.94375 13.5017 1.4 13.2089 1.4 12.8554V9.60624H5.1875V8.39057H1.3975V5.47974H0V12.8531C0 14.1037 1.11625 14.8621 3.3125 15.1374V20.4924C3.3125 21.8457 4.64 22.5201 7.3 22.5201C9.95625 22.5201 11.285 21.8469 11.285 20.4924V18.5884C11.285 17.2304 9.95625 16.5514 7.3 16.5514M19.965 20.4014C19.965 20.7316 19.5888 20.9906 18.8363 21.1831C18.135 21.3469 17.4141 21.4261 16.6912 21.4187C15.9684 21.4265 15.2474 21.3473 14.5463 21.1831C13.7963 20.9906 13.4213 20.7316 13.4213 20.4014V18.4962C13.4213 18.1696 13.7963 17.9059 14.5463 17.7169C15.247 17.5507 15.9683 17.4715 16.6912 17.4812C17.4912 17.4812 18.21 17.5571 18.8363 17.7169C19.5888 17.9094 19.965 18.1684 19.965 18.4962V20.4014ZM16.69 16.4149C13.7325 16.4149 12.2563 17.1114 12.2563 18.4962V20.4002C12.2563 21.7886 13.7325 22.4851 16.6912 22.4851C19.6488 22.4851 21.1262 21.7874 21.1262 20.4002V18.4962C21.1262 17.1079 19.6475 16.4149 16.69 16.4149ZM28.7775 17.0146C28.7775 17.3599 28.35 17.7227 27.4963 18.1042C26.7913 18.3784 26.2525 18.5756 25.8962 18.6946C25.3523 18.5175 24.8161 18.3206 24.2887 18.1042C23.435 17.7192 23.0137 17.3599 23.0137 17.0169V16.4452H21.8513V17.0169C21.8513 17.5372 22.1287 18.0062 22.6887 18.4169C23.0112 18.6619 23.5425 18.9454 24.2887 19.2662C22.6663 20.0456 21.8538 20.9462 21.8538 21.9589V22.4839H23.0137V21.9589C23.0137 21.5459 23.3888 21.1072 24.1438 20.6487C24.695 20.3119 25.2865 20.0362 25.9062 19.8274C26.56 20.0607 27.1413 20.3291 27.6513 20.6487C28.4013 21.1084 28.7762 21.5459 28.7762 21.9589V22.4839H29.9412V21.9589C29.9412 20.9462 29.1313 20.0456 27.5037 19.2662C28.2537 18.9454 28.7863 18.6619 29.1088 18.4169C29.6625 18.0039 29.9412 17.5372 29.9412 17.0169V16.4452H28.7775V17.0146Z" fill="black"/>
</g>
</svg>
