<svg width="21" height="20" viewBox="0 0 21 20" fill="none" xmlns="http://www.w3.org/2000/svg">
<path d="M4.84615 0C3.06923 0 1.61538 1.4291 1.61538 3.17578V7.1455H0V9.52734H1.61538V18.2607C1.61538 18.6974 1.97885 19.0547 2.42308 19.0547H4.84615L5.124 18.2607H15.876L16.1538 19.0547H18.5769C19.0212 19.0547 19.3846 18.6974 19.3846 18.2607V9.52734H21V7.1455H19.3846V3.17578C19.3846 1.4291 17.9308 0 16.1538 0H4.84615ZM4.84615 1.58789H16.1538C17.056 1.58789 17.7692 2.28894 17.7692 3.17578H3.23077C3.23077 2.28894 3.94396 1.58789 4.84615 1.58789ZM3.23077 4.76367H9.69231V10.3213H3.23077V4.76367ZM11.3077 4.76367H17.7692V10.3213H11.3077V4.76367ZM3.23077 11.9092H17.7692V16.6728H3.23077V11.9092ZM4.03846 13.4971V15.085H7.26923V13.4971H4.03846ZM13.7308 13.4971V15.085H16.9615V13.4971H13.7308Z" fill="#091F1B"/>
</svg>
