<svg width="19" height="19" viewBox="0 0 19 19" fill="none" xmlns="http://www.w3.org/2000/svg">
<path d="M9.5 7.61111C9.93409 7.61111 10.3639 7.52561 10.765 7.35949C11.166 7.19337 11.5304 6.94989 11.8374 6.64294C12.1443 6.33599 12.3878 5.97159 12.5539 5.57054C12.7201 5.16949 12.8056 4.73965 12.8056 4.30556C12.8056 3.87146 12.7201 3.44162 12.5539 3.04057C12.3878 2.63953 12.1443 2.27512 11.8374 1.96817C11.5304 1.66123 11.166 1.41774 10.765 1.25162C10.3639 1.0855 9.93409 1 9.5 1C8.62331 1 7.78253 1.34826 7.16262 1.96817C6.54271 2.58809 6.19444 3.42887 6.19444 4.30556C6.19444 5.18224 6.54271 6.02302 7.16262 6.64294C7.78253 7.26285 8.62331 7.61111 9.5 7.61111ZM1 17.4333V18H18V17.4333C18 15.3178 18 14.26 17.5882 13.4516C17.226 12.7408 16.6481 12.1628 15.9373 11.8007C15.1289 11.3889 14.0711 11.3889 11.9556 11.3889H7.04444C4.92889 11.3889 3.87111 11.3889 3.06267 11.8007C2.35186 12.1628 1.77396 12.7408 1.41178 13.4516C1 14.26 1 15.3178 1 17.4333Z" stroke="#091F1B" stroke-width="2" stroke-linecap="round" stroke-linejoin="round"/>
</svg>
