<svg width="60" height="42" viewBox="0 0 60 42" fill="none" xmlns="http://www.w3.org/2000/svg">
<path d="M53.2355 1.70587C52.8664 1.17927 52.376 0.749313 51.8056 0.452382C51.2352 0.155451 50.6017 0.000280538 49.9586 0H4C2.9395 0.00119105 1.92278 0.422999 1.17289 1.17288C0.423001 1.92277 0.00119105 2.93949 0 3.99998V34.9998H5.13525C5.48666 36.9626 6.51711 38.7394 8.04629 40.0191C9.57548 41.2988 11.506 42 13.5 42C15.494 42 17.4245 41.2988 18.9537 40.0191C20.4829 38.7394 21.5133 36.9626 21.8647 34.9998H37.1352C37.4867 36.9626 38.5171 38.7394 40.0463 40.0191C41.5755 41.2988 43.506 42 45.5 42C47.494 42 49.4245 41.2988 50.9537 40.0191C52.4829 38.7394 53.5133 36.9626 53.8647 34.9998H60V12.3151C60.0009 11.6994 59.8115 11.0985 59.4577 10.5947L53.2355 1.70587ZM20.5 3.99998H38.5V15.9999H20.5V3.99998ZM4 3.99998H16.5V15.9999H4V3.99998ZM13.5 37.9998C12.61 37.9998 11.74 37.7359 10.9999 37.2415C10.2599 36.747 9.68314 36.0442 9.34254 35.2219C9.00195 34.3997 8.91283 33.4949 9.08647 32.622C9.2601 31.749 9.68868 30.9472 10.318 30.3179C10.9474 29.6886 11.7492 29.26 12.6221 29.0863C13.495 28.9127 14.3998 29.0018 15.2221 29.3424C16.0443 29.683 16.7471 30.2598 17.2416 30.9998C17.7361 31.7398 18 32.6098 18 33.4999C17.9987 34.6929 17.5241 35.8367 16.6805 36.6804C15.8369 37.524 14.6931 37.9985 13.5 37.9998ZM45.5 37.9998C44.61 37.9998 43.74 37.7359 42.9999 37.2415C42.2599 36.747 41.6831 36.0442 41.3425 35.2219C41.0019 34.3997 40.9128 33.4949 41.0865 32.622C41.2601 31.749 41.6887 30.9472 42.318 30.3179C42.9474 29.6886 43.7492 29.26 44.6221 29.0863C45.495 28.9127 46.3998 29.0018 47.2221 29.3424C48.0443 29.683 48.7471 30.2598 49.2416 30.9998C49.7361 31.7398 50 32.6098 50 33.4999C49.9987 34.6929 49.5241 35.8367 48.6805 36.6804C47.8369 37.524 46.6931 37.9985 45.5 37.9998ZM56 30.9999H53.6242C53.0897 29.2624 52.0123 27.742 50.55 26.662C49.0878 25.582 47.3178 24.9992 45.5 24.9992C43.6822 24.9992 41.9122 25.582 40.45 26.662C38.9877 27.742 37.9103 29.2624 37.3757 30.9999H21.6242C21.0897 29.2624 20.0123 27.742 18.55 26.662C17.0878 25.582 15.3178 24.9992 13.5 24.9992C11.6822 24.9992 9.91219 25.582 8.44996 26.662C6.98773 27.742 5.91026 29.2624 5.37575 30.9999H4V19.9999H56V30.9999ZM56 15.9999H42.5V3.99998H49.9586L56 12.6303V15.9999Z" fill="#006D5A"/>
</svg>
