<svg width="26" height="22" viewBox="0 0 26 22" fill="none" xmlns="http://www.w3.org/2000/svg">
<path d="M4.64302 5.26511C4.64302 4.37649 4.98545 3.52428 5.59496 2.89593C6.20447 2.26759 7.03115 1.91458 7.89314 1.91458C8.75512 1.91458 9.5818 2.26759 10.1913 2.89593C10.8008 3.52428 11.1433 4.37649 11.1433 5.26511C11.1433 6.15372 10.8008 7.00594 10.1913 7.63429C9.5818 8.26263 8.75512 8.61563 7.89314 8.61563C7.03115 8.61563 6.20447 8.26263 5.59496 7.63429C4.98545 7.00594 4.64302 6.15372 4.64302 5.26511ZM7.89314 0C6.53859 0 5.23952 0.554715 4.28171 1.54211C3.32391 2.52951 2.78581 3.86871 2.78581 5.26511C2.78581 6.6615 3.32391 8.0007 4.28171 8.9881C5.23952 9.9755 6.53859 10.5302 7.89314 10.5302C9.24769 10.5302 10.5468 9.9755 11.5046 8.9881C12.4624 8.0007 13.0005 6.6615 13.0005 5.26511C13.0005 3.86871 12.4624 2.52951 11.5046 1.54211C10.5468 0.554715 9.24769 0 7.89314 0ZM17.6435 6.70105C17.6435 6.19327 17.8392 5.70629 18.1875 5.34723C18.5357 4.98818 19.0081 4.78646 19.5007 4.78646C19.9933 4.78646 20.4656 4.98818 20.8139 5.34723C21.1622 5.70629 21.3579 6.19327 21.3579 6.70105C21.3579 7.20883 21.1622 7.69581 20.8139 8.05486C20.4656 8.41392 19.9933 8.61563 19.5007 8.61563C19.0081 8.61563 18.5357 8.41392 18.1875 8.05486C17.8392 7.69581 17.6435 7.20883 17.6435 6.70105ZM19.5007 2.87188C18.5156 2.87188 17.5708 3.27531 16.8742 3.99341C16.1776 4.71152 15.7863 5.68549 15.7863 6.70105C15.7863 7.71661 16.1776 8.69057 16.8742 9.40868C17.5708 10.1268 18.5156 10.5302 19.5007 10.5302C20.4858 10.5302 21.4306 10.1268 22.1272 9.40868C22.8238 8.69057 23.2151 7.71661 23.2151 6.70105C23.2151 5.68549 22.8238 4.71152 22.1272 3.99341C21.4306 3.27531 20.4858 2.87188 19.5007 2.87188ZM0 15.3167C0 14.555 0.293505 13.8245 0.815946 13.286C1.33839 12.7474 2.04697 12.4448 2.78581 12.4448H13.0005C13.7393 12.4448 14.4479 12.7474 14.9703 13.286C15.4928 13.8245 15.7863 14.555 15.7863 15.3167V15.533C15.7841 15.6223 15.7779 15.7114 15.7677 15.8001C15.7491 15.9657 15.7148 16.1907 15.647 16.4568C15.4677 17.1585 15.1521 17.8154 14.7193 18.3877C13.6328 19.8255 11.589 21.0604 7.89314 21.0604C4.19729 21.0604 2.15436 19.8255 1.06697 18.3877C0.633834 17.8155 0.317916 17.1586 0.138362 16.4568C0.0679225 16.1751 0.0225427 15.8874 0.00278583 15.5972L0.000928537 15.533V15.511L0 15.5033V15.3167ZM1.85721 15.4871V15.4986C1.85721 15.5152 1.85999 15.5452 1.86557 15.5885C1.87485 15.6747 1.89435 15.8087 1.93614 15.9753C2.01972 16.3084 2.18965 16.7584 2.53138 17.2112C3.18604 18.0766 4.62445 19.1458 7.89314 19.1458C11.1618 19.1458 12.6012 18.0766 13.2549 17.2121C13.5319 16.8454 13.734 16.4247 13.8492 15.9753C13.8888 15.819 13.9155 15.6595 13.9291 15.4986L13.93 15.4871V15.3167C13.93 15.0628 13.8322 14.8193 13.658 14.6398C13.4839 14.4602 13.2477 14.3594 13.0014 14.3594H2.78581C2.53953 14.3594 2.30334 14.4602 2.12919 14.6398C1.95504 14.8193 1.85721 15.0628 1.85721 15.3167V15.4871ZM16.2292 18.6595C17.0928 18.962 18.1672 19.1458 19.5007 19.1458C22.4732 19.1458 24.1623 18.2335 25.0844 17.1116C25.5329 16.5659 25.7623 16.0126 25.8784 15.5876C25.9408 15.3597 25.9809 15.1259 25.9981 14.8897L25.9991 14.8553L26 14.8342V14.7978C26.0001 14.4889 25.9412 14.1829 25.8266 13.8974C25.712 13.612 25.5439 13.3526 25.3321 13.134C25.1202 12.9155 24.8686 12.7422 24.5918 12.6239C24.3149 12.5057 24.0181 12.4448 23.7184 12.4448H16.1141C16.5784 12.9799 16.9155 13.6347 17.0752 14.3594H23.7184C23.9506 14.3594 24.1381 14.5499 24.1437 14.7863L24.14 14.8285C24.1289 14.9092 24.1127 14.9891 24.0917 15.0678C24.0341 15.2784 23.9153 15.5732 23.6673 15.8748C23.1965 16.4482 22.0999 17.2313 19.5007 17.2313C18.4189 17.2313 17.598 17.0953 16.974 16.8962C16.8093 17.5178 16.5584 18.1117 16.2292 18.6595Z" fill="#413D3D"/>
</svg>
