<svg width="24" height="21" viewBox="0 0 24 21" fill="none" xmlns="http://www.w3.org/2000/svg">
<path d="M0 0V1.96875C0 7.41563 2.58732 12.18 6.43902 14.8313V21H24V18.375C24 14.8837 17.76 13.125 14.6341 13.125H14.3415C8.78049 13.125 4.09756 7.875 4.09756 1.96875V0M14.6341 0C13.3922 0 12.201 0.553123 11.3228 1.53769C10.4446 2.52226 9.95122 3.85761 9.95122 5.25C9.95122 6.64239 10.4446 7.97775 11.3228 8.96231C12.201 9.94688 13.3922 10.5 14.6341 10.5C15.8761 10.5 17.0673 9.94688 17.9455 8.96231C18.8237 7.97775 19.3171 6.64239 19.3171 5.25C19.3171 3.85761 18.8237 2.52226 17.9455 1.53769C17.0673 0.553123 15.8761 0 14.6341 0Z" fill="#091F1B"/>
</svg>
